<svg width="400" height="400" viewBox="0 0 400 400" fill="none" xmlns="http://www.w3.org/2000/svg">
<rect x="5" y="5" width="390" height="390" fill="#151515" stroke="#EDEDED" stroke-width="10"/>
<path d="M99.9316 310.226V270.151H152.639V148.619C152.639 139.036 147.993 134.244 138.7 134.244H104.288V94.1688H156.124C168.03 94.1688 177.759 97.6536 185.309 104.623C192.86 111.302 196.635 120.74 196.635 132.937V138.164H198.813C202.007 121.902 208.832 109.705 219.286 101.574C230.031 93.1524 245.567 88.9416 265.895 88.9416H299.436V137.729H252.392C235.258 137.729 222.045 143.682 212.752 155.588C203.459 167.495 198.813 181.724 198.813 198.277V270.151H265.895V310.226H99.9316Z" fill="#EDEDED"/>
<path d="M350 0H400V50H350V0Z" fill="#EDEDED"/>
<path d="M0 350H50V400H0V350Z" fill="#EDEDED"/>
</svg>
