<svg width="1080" height="1080" viewBox="0 0 1080 1080" fill="none" xmlns="http://www.w3.org/2000/svg">
<path d="M339.2 820C332.8 820 328.8 816 328.8 809.6V264C328.8 261.6 330.4 260 332.8 260H483.2C505.6 260 519.2 260 528.8 260.8C719.2 278.4 748.8 503.2 609.6 572.8C596.8 579.2 594.4 589.6 601.6 600.8L745.6 811.2C749.6 816.8 747.2 820 740.8 820H647.2C640.8 820 634.4 816.8 630.4 811.2L498.4 615.2C490.4 604 476.8 596.8 463.2 596.8H447.2C433.6 596.8 424.8 605.6 424.8 619.2V809.6C424.8 816 420.8 820 414.4 820H339.2ZM424.8 373.6V483.2C424.8 496.8 433.6 506.4 447.2 506.4H505.6C627.2 506.4 626.4 350.4 505.6 350.4H447.2C433.6 350.4 424.8 360 424.8 373.6Z" fill="#FF6B6B"/>
</svg>
