<svg width="800" height="800" viewBox="0 0 800 800" fill="none" xmlns="http://www.w3.org/2000/svg">
<path d="M470 400L607.5 262.5C627.5 242.5 627.5 212.5 607.5 192.5C600 182.5 587.5 175 575 175C562.5 175 550 180 540 190L400 330L262.5 192.5C242.5 172.5 210 172.5 192.5 192.5C182.5 200 175 212.5 175 227.5C175 242.5 180 252.5 190 262.5L327.5 400L190 537.5C182.5 547.5 175 560 175 575C175 587.5 180 600 190 610C200 620 212.5 625 225 625C237.5 625 250 620 260 610L397.5 472.5L535 610C555 630 587.5 630 605 610C625 590 625 557.5 605 540L470 400Z" fill="#FF6B6B"/>
</svg>
