<svg width="800" height="800" viewBox="0 0 800 800" fill="none" xmlns="http://www.w3.org/2000/svg">
<path d="M300 333.333L408.603 414.786C422.553 425.246 442.207 423.189 453.69 410.069L666.667 166.666" stroke="#FF6B6B" stroke-width="66.6667" stroke-linecap="round"/>
<path d="M700 400C700 462.683 680.367 523.79 643.853 574.743C607.343 625.697 555.787 663.93 496.433 684.08C437.077 704.227 372.9 705.277 312.915 687.083C252.931 668.887 200.153 632.357 161.994 582.63C123.835 532.9 102.212 472.467 100.161 409.817C98.1097 347.167 115.734 285.448 150.559 233.329C185.384 181.21 235.66 141.308 294.325 119.228C352.99 97.1481 417.1 93.9987 477.647 110.222" stroke="#FF6B6B" stroke-width="66.6667" stroke-linecap="round"/>
</svg>
