<svg width="634" height="634" viewBox="0 0 634 634" fill="none" xmlns="http://www.w3.org/2000/svg">
<path d="M634 491.251C610.938 497.115 596.673 491.508 583.874 472.29L492.856 346.362L479.7 328.927L373.406 472.706C361.261 490.002 348.522 497.531 325.856 491.409L461.968 308.698L335.247 143.66C357.041 139.421 372.099 141.58 385.472 161.095L479.879 288.589L574.979 161.789C587.163 144.493 600.259 137.915 622.132 144.294L572.997 209.438L506.427 296.117C498.502 306.024 499.592 312.8 506.883 322.369L634 491.251ZM0.1585 305.647L11.2931 250.886C41.6063 142.511 165.831 97.4775 251.5 164.444C301.566 203.831 314.008 259.544 311.532 321.953H29.3225C25.0826 434.29 105.937 502.088 209.022 467.495C245.18 455.35 266.478 427.038 277.137 391.614C282.546 373.862 291.501 371.088 308.183 376.16C299.664 420.461 280.446 457.47 239.83 480.631C179.145 515.303 92.5244 504.089 46.9556 455.905C19.8125 427.95 8.59863 392.525 3.56625 354.644C2.77375 348.383 1.18875 342.419 0 336.416C0.105667 326.166 0.1585 315.917 0.1585 305.667V305.647ZM29.8376 298.119H284.864C283.2 216.887 232.619 159.193 163.493 158.698C87.6109 158.104 33.1265 214.431 29.8376 298.119Z" fill="#FF6B6B"/>
</svg>
