<svg width="1668" height="2500" viewBox="0 0 1668 2500" fill="none" xmlns="http://www.w3.org/2000/svg">
<g clip-path="url(#clip0_1_21)">
<path d="M834 1250C834 1019.89 1020.55 833.333 1250.67 833.333C1480.78 833.333 1667.33 1019.89 1667.33 1250C1667.33 1480.12 1480.78 1666.67 1250.67 1666.67C1020.55 1666.67 834 1480.12 834 1250Z" fill="#DECE9C"/>
<path d="M0.666504 2083.33C0.666504 1853.22 187.213 1666.67 417.333 1666.67H834V2083.33C834 2313.45 647.454 2500 417.333 2500C187.213 2500 0.666504 2313.45 0.666504 2083.33Z" fill="#DECE9C"/>
<path d="M834 0.00585938V833.333H1250.67C1480.79 833.333 1667.33 646.787 1667.33 416.667C1667.33 186.546 1480.79 0.00585938 1250.67 0.00585938H834Z" fill="#FF6B6B"/>
<path d="M0.666504 416.667C0.666504 646.787 187.213 833.333 417.333 833.333H834V0H417.333C187.213 0 0.666504 186.552 0.666504 416.667Z" fill="#DECE9C"/>
<path d="M0.666504 1250C0.666504 1480.12 187.213 1666.67 417.333 1666.67H834V833.333H417.333C187.213 833.333 0.666504 1019.89 0.666504 1250Z" fill="#FF6B6B"/>
</g>
<defs>
<clipPath id="clip0_1_21">
<rect width="1667" height="2500" fill="white" transform="translate(0.5)"/>
</clipPath>
</defs>
</svg>
