<svg width="2501" height="2500" viewBox="0 0 2501 2500" fill="none" xmlns="http://www.w3.org/2000/svg">
<g clip-path="url(#clip0_1_11)">
<path d="M2453.35 1138.61L1361.83 47.1484C1299.01 -15.7129 1197.05 -15.7129 1134.15 47.1484L907.492 273.809L1195.02 561.338C1261.84 538.76 1338.46 553.906 1391.72 607.168C1445.24 660.771 1460.28 738.047 1437.15 805.078L1714.25 1082.19C1781.29 1059.09 1858.64 1074.03 1912.19 1127.67C1987.02 1202.47 1987.02 1323.71 1912.19 1398.56C1837.34 1473.43 1716.1 1473.43 1641.2 1398.56C1584.91 1342.22 1571.01 1259.55 1599.5 1190.21L1341.09 931.787L1341.06 1611.84C1359.79 1621.1 1376.9 1633.33 1391.72 1648.07C1466.55 1722.87 1466.55 1844.12 1391.72 1919.03C1316.87 1993.86 1195.57 1993.86 1120.82 1919.03C1045.99 1844.12 1045.99 1722.88 1120.82 1648.08C1138.76 1630.13 1160.07 1615.92 1183.53 1606.27V919.883C1160.03 910.292 1138.71 896.075 1120.82 878.076C1064.12 821.455 1050.49 738.262 1079.54 668.643L796.105 385.176L47.668 1133.56C-15.2227 1196.48 -15.2227 1298.45 47.668 1361.32L1139.21 2452.8C1202.05 2515.67 1303.99 2515.67 1366.91 2452.8L2453.34 1366.39C2516.21 1303.5 2516.22 1201.47 2453.35 1138.61Z" fill="#FF6B6B"/>
</g>
<defs>
<clipPath id="clip0_1_11">
<rect width="2500" height="2500" fill="white" transform="translate(0.5)"/>
</clipPath>
</defs>
</svg>
