<svg width="2501" height="676" viewBox="0 0 2501 676" fill="none" xmlns="http://www.w3.org/2000/svg">
<g clip-path="url(#clip0_1_8)">
<path d="M482.111 289.336H272.058C269.455 289.337 266.959 290.372 265.118 292.213C263.277 294.053 262.243 296.549 262.241 299.152V401.852C262.243 404.457 263.277 406.955 265.117 408.798C266.957 410.641 269.453 411.679 272.058 411.685H354V539.275C354 539.275 335.601 545.552 284.732 545.552C224.718 545.552 140.881 523.618 140.881 339.267C140.881 154.88 228.18 130.614 310.138 130.614C381.082 130.614 411.646 143.112 431.092 149.123C437.202 150.997 442.855 144.918 442.855 139.489L466.288 40.266C466.288 37.7311 465.429 34.6706 462.535 32.5938C454.639 26.962 406.456 0 284.732 0C144.504 0 0.663818 59.665 0.663818 346.456C0.663818 633.267 165.35 676 304.126 676C419.032 676 488.737 626.896 488.737 626.896C491.61 625.303 491.923 621.29 491.923 619.448V299.147C491.923 293.734 487.53 289.336 482.111 289.336ZM1564.64 34.3635C1564.65 33.0745 1564.41 31.796 1563.93 30.6016C1563.44 29.4071 1562.73 28.3202 1561.82 27.4032C1560.91 26.4861 1559.84 25.7572 1558.65 25.258C1557.46 24.7589 1556.18 24.4996 1554.89 24.4948H1436.62C1435.32 24.4996 1434.05 24.7586 1432.86 25.2572C1431.66 25.7557 1430.58 26.4839 1429.67 27.4003C1428.76 28.3167 1428.04 29.4033 1427.55 30.5981C1427.06 31.7928 1426.81 33.0723 1426.82 34.3635L1426.85 262.931H1242.49V34.3635C1242.5 33.074 1242.26 31.7953 1241.77 30.6008C1241.29 29.4062 1240.57 28.3194 1239.66 27.4025C1238.76 26.4856 1237.68 25.7568 1236.49 25.2578C1235.3 24.7588 1234.02 24.4996 1232.74 24.4948H1114.47C1111.86 24.5086 1109.37 25.5558 1107.54 27.4064C1105.71 29.257 1104.68 31.7594 1104.7 34.3635V653.259C1104.7 658.714 1109.09 663.154 1114.47 663.154H1232.74C1238.14 663.154 1242.49 658.709 1242.49 653.259V388.533H1426.85L1426.53 653.259C1426.53 658.714 1430.92 663.154 1436.33 663.154H1554.88C1560.3 663.154 1564.63 658.709 1564.64 653.259V34.3635ZM705.297 115.582C705.297 72.9898 671.152 38.5743 629.028 38.5743C586.945 38.5743 552.774 72.9898 552.774 115.582C552.774 158.123 586.945 192.627 629.028 192.627C671.152 192.627 705.297 158.123 705.297 115.582ZM696.838 522.707V237.026C696.845 234.421 695.819 231.92 693.985 230.071C692.15 228.222 689.657 227.176 687.053 227.162H569.154C563.746 227.162 558.906 232.742 558.906 238.171V647.461C558.906 659.495 566.401 663.066 576.103 663.066H682.327C693.981 663.066 696.838 657.34 696.838 647.274V522.707ZM2014.13 228.094H1896.76C1891.38 228.094 1886.99 232.528 1886.99 237.988V541.451C1886.99 541.451 1857.17 563.27 1814.86 563.27C1772.54 563.27 1761.31 544.069 1761.31 502.632V237.988C1761.31 232.528 1756.94 228.094 1751.55 228.094H1632.43C1627.06 228.094 1622.65 232.528 1622.65 237.988V522.666C1622.65 645.743 1691.25 675.854 1785.62 675.854C1863.04 675.854 1925.45 633.09 1925.45 633.09C1925.45 633.09 1928.42 655.622 1929.76 658.298C1931.11 660.963 1934.61 663.654 1938.4 663.654L2014.18 663.321C2019.56 663.321 2023.96 658.876 2023.96 653.441L2023.92 237.994C2023.92 232.528 2019.53 228.094 2014.13 228.094ZM2288.61 562.895C2247.9 561.656 2220.29 543.179 2220.29 543.179V347.195C2220.29 347.195 2247.53 330.497 2280.95 327.509C2323.22 323.725 2363.94 336.493 2363.94 437.309C2363.94 543.626 2345.57 564.608 2288.61 562.895ZM2334.91 214.196C2268.24 214.196 2222.9 243.938 2222.9 243.938V34.3686C2222.9 28.9034 2218.54 24.4948 2213.14 24.4948H2094.54C2093.25 24.5009 2091.97 24.7612 2090.78 25.2608C2089.59 25.7604 2088.51 26.4895 2087.61 27.4065C2086.7 28.3234 2085.98 29.4102 2085.49 30.6048C2085 31.7994 2084.76 33.0784 2084.76 34.3686V653.259C2084.76 658.714 2089.15 663.154 2094.55 663.154H2176.85C2180.55 663.154 2183.36 661.244 2185.43 657.902C2187.47 654.576 2190.42 629.368 2190.42 629.368C2190.42 629.368 2238.93 675.329 2330.74 675.329C2438.52 675.329 2500.34 620.655 2500.34 429.892C2500.34 239.123 2401.61 214.196 2334.91 214.196ZM1036.76 227.11H948.042L947.907 109.898C947.907 105.464 945.622 103.246 940.495 103.246H819.593C814.893 103.246 812.369 105.318 812.369 109.831V230.957C812.369 230.957 751.782 245.577 747.686 246.764C745.643 247.356 743.847 248.596 742.57 250.297C741.292 251.998 740.601 254.068 740.602 256.196V332.308C740.602 337.784 744.974 342.187 750.382 342.187H812.369V525.289C812.369 661.296 907.766 674.657 972.141 674.657C1001.55 674.657 1036.74 665.215 1042.55 663.06C1046.06 661.769 1048.1 658.131 1048.1 654.186L1048.2 570.458C1048.2 564.993 1043.59 560.584 1038.4 560.584C1033.23 560.584 1020 562.687 1006.39 562.687C962.809 562.687 948.042 542.424 948.042 516.196L948.037 342.182H1036.76C1042.17 342.182 1046.55 337.774 1046.55 332.303V236.963C1046.55 235.673 1046.3 234.395 1045.82 233.201C1045.33 232.007 1044.61 230.921 1043.7 230.006C1042.79 229.091 1041.71 228.364 1040.52 227.867C1039.33 227.37 1038.05 227.113 1036.76 227.11Z" fill="#FF6B6B"/>
</g>
<defs>
<clipPath id="clip0_1_8">
<rect width="2500" height="676" fill="white" transform="translate(0.5)"/>
</clipPath>
</defs>
</svg>
