<svg width="2490" height="2500" viewBox="0 0 2490 2500" fill="none" xmlns="http://www.w3.org/2000/svg">
<rect width="2490" height="2500" fill="#FF6B6B"/>
<path d="M0 183.366C0 84.9134 82.4229 5 184.027 5H2305.97C2407.62 5 2490 84.9134 2490 183.366V2316.66C2490 2415.14 2407.62 2495 2305.97 2495H184.027C82.4326 2495 0 2415.15 0 2316.69V183.337V183.366Z" fill="#FF6B6B"/>
<path d="M756.688 2088.8V967.793H384.083V2088.8H756.727H756.688ZM570.463 814.765C700.371 814.765 781.247 728.685 781.247 621.109C778.816 511.082 700.371 427.404 572.934 427.404C445.409 427.404 362.12 511.082 362.12 621.099C362.12 728.675 442.967 814.755 568.022 814.755H570.434L570.463 814.765ZM962.93 2088.8H1335.51V1462.85C1335.51 1429.39 1337.94 1395.84 1347.78 1371.94C1374.7 1304.97 1436.01 1235.65 1538.97 1235.65C1673.76 1235.65 1727.71 1338.44 1727.71 1489.16V2088.8H2100.28V1446.05C2100.28 1101.74 1916.48 941.511 1671.34 941.511C1470.36 941.511 1382.1 1053.84 1333.05 1130.35H1335.54V967.832H962.949C967.813 1073 962.92 2088.84 962.92 2088.84L962.93 2088.8Z" fill="#1A1831"/>
</svg>
