<svg width="1080" height="140" viewBox="0 0 1080 140" fill="none" xmlns="http://www.w3.org/2000/svg">
<g clip-path="url(#clip0_4_2)">
<path d="M63.8 140C62.2 140 61.2 139 61.2 137.4V0.99999C61.2 0.399997 61.6 -9.53674e-06 62.2 -9.53674e-06H99.8C105.4 -9.53674e-06 108.8 -9.53674e-06 111.2 0.199988C159.2 4.59999 165.4 60 130.6 78.6C127.6 80.2 126.8 82.8 128.6 85.4L165.4 137.8C166.4 139.2 165.8 140 164.2 140H140.8C139.2 140 137.6 139.2 136.6 137.8L100.8 86.2C100 85 99.2 83.2 99.2 81.6V64.2C99.2 62.6 100.2 61.6 101.8 61.6H105.4C135.8 61.6 135.6 22.6 105.4 22.6H90.8C87.4 22.6 85.2 25 85.2 28.4V137.4C85.2 139 84.2 140 82.6 140H63.8ZM207.13 89.4C207.13 87.8 208.13 86.8 209.73 86.8H228.53C230.13 86.8 230.93 87.8 231.13 89.4C232.33 109.4 248.13 119.6 263.73 119.6C280.13 119.6 296.33 108.6 296.33 86.8V2.59999C296.33 0.99999 297.33 -9.53674e-06 298.93 -9.53674e-06H317.73C319.13 -9.53674e-06 320.33 0.99999 320.33 2.59999V86.8C320.33 125.4 292.13 144.8 263.73 144.8C236.13 144.8 208.33 126.2 207.13 89.4ZM207.13 62.4V2.59999C207.13 0.99999 208.13 -9.53674e-06 209.73 -9.53674e-06H228.53C230.13 -9.53674e-06 231.13 0.99999 231.13 2.59999V62.4C231.13 64 230.13 65 228.53 65H209.73C208.13 65 207.13 64 207.13 62.4ZM371.378 22.4C369.778 22.4 368.778 21.4 368.778 19.8V2.59999C368.778 0.99999 369.778 -9.53674e-06 371.378 -9.53674e-06H404.578C409.978 -9.53674e-06 413.778 -9.53674e-06 415.978 0.199988C459.778 3.2 481.778 36.6 481.778 70C481.778 103.4 459.778 135.8 415.978 139.8C413.778 140 409.978 140 404.578 140H371.378C369.778 140 368.778 139 368.778 137.4V44.4C368.778 42.8 369.778 41.8 371.378 41.8H390.178C391.778 41.8 392.778 42.8 392.778 44.4V111.8C392.778 115.2 394.978 117.4 398.378 117.4H403.578C409.378 117.4 412.778 117.4 414.978 117.2C472.378 111.6 470.778 22.4 409.178 22.4H371.378ZM531.613 140C530.013 140 529.013 139 529.013 137.4V0.99999C529.013 0.399997 529.413 -9.53674e-06 530.013 -9.53674e-06H567.613C573.213 -9.53674e-06 576.613 -9.53674e-06 579.013 0.199988C627.013 4.59999 633.213 60 598.413 78.6C595.413 80.2 594.613 82.8 596.413 85.4L633.213 137.8C634.213 139.2 633.613 140 632.013 140H608.613C607.013 140 605.413 139.2 604.413 137.8L568.613 86.2C567.813 85 567.013 83.2 567.013 81.6V64.2C567.013 62.6 568.013 61.6 569.613 61.6H573.213C603.613 61.6 603.413 22.6 573.213 22.6H558.613C555.213 22.6 553.013 25 553.013 28.4V137.4C553.013 139 552.013 140 550.413 140H531.613ZM671.542 140C669.942 140 669.342 139 669.942 137.6L733.142 -0.200007C733.542 -1.20001 734.942 -2.00001 736.142 -2.00001C737.342 -2.00001 738.542 -1.20001 738.942 -0.200007L802.142 137.6C802.742 139 802.142 140 800.542 140H780.942C779.342 140 777.742 139 777.142 137.6L771.542 125.4C770.142 122.4 766.942 120.4 763.542 120.4H723.142C721.542 120.4 720.942 119.4 721.542 118L729.742 100.4C730.342 99 731.742 98 733.342 98H753.342C756.742 98 757.942 96 756.542 92.8L738.542 53.6C737.742 52 736.942 51.2 736.142 51.2C735.342 51.2 734.542 52 733.742 53.6L694.942 137.6C694.342 139 692.742 140 691.342 140H671.542ZM840.175 140C838.575 140 838.175 139.2 838.975 137.8L878.375 74.8C880.175 72 880.175 68 878.375 65.2L838.975 2.2C838.175 0.799992 838.575 -9.53674e-06 840.175 -9.53674e-06H862.975C864.575 -9.53674e-06 866.175 0.799992 866.975 2.2L951.775 137.8C952.575 139.2 951.975 140 950.575 140H927.775C926.175 140 924.575 139.2 923.775 137.8L898.375 97.2C897.375 95.8 896.375 95 895.375 95C894.375 95 893.375 95.8 892.375 97.2L866.975 137.8C866.175 139.2 864.575 140 862.975 140H840.175ZM903.775 38.6C902.975 37.2 902.975 35.6 903.775 34.2L923.775 2.2C924.575 0.799992 926.175 -9.53674e-06 927.775 -9.53674e-06H950.575C951.975 -9.53674e-06 952.575 0.799992 951.775 2.2L917.975 56.2C917.175 57.6 915.975 57.6 915.175 56.2L903.775 38.6ZM995.653 44.4C995.653 42.8 996.653 41.8 998.253 41.8H1017.05C1018.65 41.8 1019.65 42.8 1019.65 44.4V137.4C1019.65 139 1018.65 140 1017.05 140H998.253C996.653 140 995.653 139 995.653 137.4V44.4ZM995.653 19.8V2.59999C995.653 0.99999 996.653 -9.53674e-06 998.253 -9.53674e-06H1017.05C1018.65 -9.53674e-06 1019.65 0.99999 1019.65 2.59999V19.8C1019.65 21.4 1018.65 22.4 1017.05 22.4H998.253C996.653 22.4 995.653 21.4 995.653 19.8Z" fill="#FF6B6B"/>
</g>
<defs>
<clipPath id="clip0_4_2">
<rect width="1080" height="140" fill="white"/>
</clipPath>
</defs>
</svg>
