<svg width="514" height="514" viewBox="0 0 514 514" fill="none" xmlns="http://www.w3.org/2000/svg">
<g clip-path="url(#clip0_1_17)">
<path d="M255.394 1.39746L269.111 27.1617C272.195 31.9162 275.536 36.1246 279.472 40.0438C290.956 51.5285 301.863 63.5593 311.661 76.4415C334.903 106.96 350.58 140.852 361.776 177.507C368.49 199.898 372.136 222.867 372.409 246.094C373.534 315.532 349.729 375.156 301.734 424.709C293.896 432.547 285.511 439.807 276.516 446.264C271.762 446.264 269.513 442.618 267.553 439.261C263.907 433.109 261.674 426.09 260.55 419.103C258.863 410.702 257.755 402.301 258.301 393.628V389.708C257.916 388.873 253.723 3.37315 255.394 1.39746Z" fill="#FF6B6B"/>
<path d="M255.394 0.546006C254.832 -0.578368 254.269 0.272944 253.707 0.819069C253.98 6.44094 252.021 11.4524 248.953 16.2391C245.58 20.9936 241.114 24.6397 236.633 28.559C211.736 50.1149 192.14 76.1522 176.447 105.273C155.565 144.466 144.803 186.469 141.752 230.689C140.354 246.639 146.795 302.922 151.823 319.162C165.54 362.273 190.18 398.398 222.096 429.752C229.935 437.301 238.319 444.305 246.993 451.035C249.515 451.035 249.788 448.786 250.366 447.115C251.472 443.541 252.315 439.89 252.888 436.193L258.51 394.206L255.394 0.546006Z" fill="#DECE9C"/>
<path d="M269.111 463.323C269.673 456.898 272.757 451.565 276.114 446.248C272.741 444.851 270.236 442.072 268.276 438.972C266.589 436.177 265.192 432.82 264.1 429.736C260.18 417.978 259.345 405.642 258.221 393.628V386.351C256.823 387.476 256.534 396.985 256.534 398.398C255.717 411.097 254.032 423.725 251.491 436.193C250.655 441.237 250.093 446.264 246.993 450.746C246.993 451.308 246.993 451.87 247.266 452.706C252.31 467.547 253.691 482.662 254.543 498.066V503.688C254.543 510.402 254.269 508.989 259.843 511.237C262.092 512.073 264.598 512.362 266.846 514.032C268.533 514.032 268.806 512.635 268.806 511.51L267.971 502.274V476.51C267.698 472.013 268.533 467.547 269.095 463.339L269.111 463.323Z" fill="#1A1831"/>
</g>
<defs>
<clipPath id="clip0_1_17">
<rect width="514" height="514" fill="white"/>
</clipPath>
</defs>
</svg>
