<svg width="2501" height="2500" viewBox="0 0 2501 2500" fill="none" xmlns="http://www.w3.org/2000/svg">
<g clip-path="url(#clip0_1_32)">
<path d="M1495.56 1617.96L882.424 1489.83C879.856 1494.8 877 1499.61 873.869 1504.24L1432.04 2318.48L1465.71 2284.84L1560.68 1694.32C1544.63 1687.54 1530.38 1677.1 1519.08 1663.84C1507.77 1650.58 1499.72 1634.87 1495.56 1617.95V1617.96ZM1271.89 816.455C1248.92 851.69 1209.27 875.01 1164.11 875.01C1157.16 875.01 1150.4 874.307 1143.76 873.252L864.143 1310.76L1611.19 989.277C1610.96 986.27 1610.29 983.457 1610.29 980.371C1610.29 974.082 1611.15 967.988 1612.17 961.973L1271.89 816.455ZM1292.2 736.729L1654.16 891.494C1665.7 882.478 1678.89 875.816 1692.99 871.885L1752.48 501.963L1525.83 275.312L1270.71 674.512C1283.22 693.007 1290.63 714.459 1292.2 736.729ZM2050.65 800.127L1823.5 572.939L1774.12 879.658C1786.64 885.952 1797.88 894.507 1807.29 904.893L2050.65 800.127ZM1506.42 1537.17C1515.31 1521.03 1528.08 1507.36 1543.57 1497.4C1559.07 1487.43 1576.81 1481.49 1595.18 1480.1L1660.41 1074.36C1655.29 1070.96 1650.72 1066.89 1646.23 1062.71L894.885 1386.07C896.799 1393.93 898.127 1401.93 898.752 1410.25L1506.42 1537.17ZM2112.52 862.041L1849.71 975.127L2498.16 1252.36L2500.5 1250.02L2112.52 862.041ZM1642.87 1695.54L1563.89 2186.59L2022.52 1727.96L1692.17 1658.97C1679.5 1675.55 1662.42 1688.23 1642.87 1695.54ZM751.408 1569.29C734.807 1569.29 718.908 1566.44 704.025 1561.39L551.682 1799.79L492.814 1740.97L637.111 1515.19C633.543 1510.76 630.217 1506.14 627.15 1501.35L365.744 1613.9L303.781 1551.93L589.914 1428.77L72.6191 1320.8L1.86719 1250.02L24.25 1227.64L620.783 1352.17C627.643 1339.15 636.427 1327.25 646.838 1316.86L357.307 894.541L415.783 836.064L718.273 1277.32C729.136 1274.8 740.247 1273.5 751.398 1273.46C764.172 1273.46 776.555 1275.25 788.391 1278.3L1071.45 835.4C1048.4 811.495 1035.53 779.581 1035.55 746.377C1035.55 736.221 1036.84 726.377 1039.06 716.924L685.939 565.947L747.883 503.994L1082.45 647.08C1099.42 633.097 1119.7 623.715 1141.34 619.836C1162.98 615.957 1185.25 617.712 1206.02 624.932L1466.99 216.484L1250.52 0L0.5 1250.02L1250.52 2500.04L1373.53 2377.03L811.174 1556.62C792.353 1564.96 771.995 1569.28 751.408 1569.29ZM1739.98 1091.85L1673.62 1504.32C1685.21 1513.64 1694.82 1525.19 1701.86 1538.3C1708.9 1551.41 1713.23 1565.8 1714.59 1580.62L2091.27 1659.25L2436.19 1314.33L1813.62 1048.14C1795.8 1071.86 1769.33 1087.56 1739.98 1091.85Z" fill="#FF6B6B"/>
</g>
<defs>
<clipPath id="clip0_1_32">
<rect width="2500" height="2500" fill="white" transform="translate(0.5)"/>
</clipPath>
</defs>
</svg>
