<svg width="2030" height="2500" viewBox="0 0 2030 2500" fill="none" xmlns="http://www.w3.org/2000/svg">
<g clip-path="url(#clip0_1_36)">
<path d="M1015.08 2397.65C984.217 2397.66 953.893 2389.54 927.162 2374.12L647.39 2208.49C605.636 2185.12 625.982 2176.87 639.791 2172.05C684.198 2158.33 726.716 2139.11 766.358 2114.85C769.676 2113.32 773.331 2112.65 776.977 2112.93C780.623 2113.2 784.14 2114.39 787.194 2116.4L1002.17 2244.12C1006.17 2246.23 1010.63 2247.34 1015.16 2247.34C1019.69 2247.34 1024.15 2246.23 1028.15 2244.12L1866.49 1760.23C1870.41 1757.88 1873.66 1754.55 1875.91 1750.57C1878.16 1746.59 1879.33 1742.09 1879.32 1737.52V769.592C1879.32 764.947 1878.13 760.379 1875.85 756.329C1873.58 752.279 1870.3 748.883 1866.33 746.469L1027.99 262.996C1024.04 260.769 1019.58 259.6 1015.04 259.6C1010.5 259.6 1006.04 260.769 1002.09 262.996L164.243 746.632C160.247 748.996 156.928 752.351 154.609 756.374C152.29 760.396 151.049 764.949 151.007 769.592V1737.11C151.018 1741.67 152.242 1746.15 154.554 1750.09C156.865 1754.02 160.181 1757.27 164.162 1759.5L394.091 1892.19C518.698 1954.46 595.014 1881.08 595.014 1807.38V852.119C595.014 848.9 595.648 845.712 596.88 842.738C598.112 839.764 599.917 837.062 602.194 834.786C604.47 832.509 607.172 830.704 610.146 829.472C613.12 828.24 616.308 827.606 619.527 827.606H725.749C732.25 827.606 738.485 830.188 743.082 834.786C747.679 839.383 750.261 845.617 750.261 852.119V1807.46C750.261 1973.74 659.728 2068.93 502.029 2068.93C433.996 2070.12 367.03 2051.92 308.95 2016.47L88.5807 1890.07C61.8282 1874.49 39.6302 1852.17 24.2027 1825.33C8.7753 1798.49 0.658171 1768.07 0.661714 1737.11V769.592C0.582196 738.586 8.66498 708.105 24.0978 681.212C39.5307 654.32 61.7699 631.963 88.5807 616.388L926.998 132.343C954.006 117.567 984.296 109.823 1015.08 109.823C1045.87 109.823 1076.16 117.567 1103.16 132.343L1941.5 616.388C1968.25 631.936 1990.45 654.229 2005.89 681.04C2021.34 707.851 2029.47 738.244 2029.5 769.184V1737.11C2029.45 1768.07 2021.31 1798.48 2005.87 1825.31C1990.43 1852.14 1968.24 1874.47 1941.5 1890.07L1103.16 2374.12C1076.38 2389.57 1046 2397.68 1015.08 2397.65Z" fill="#FF6B6B"/>
<path d="M856.075 1413.3C856.075 1406.8 858.657 1400.56 863.254 1395.96C867.851 1391.37 874.086 1388.78 880.587 1388.78H989.015C994.809 1388.8 1000.41 1390.87 1004.82 1394.63C1009.23 1398.38 1012.17 1403.58 1013.12 1409.29C1029.46 1519.68 1078.49 1575.33 1300.16 1575.33C1476.74 1575.33 1551.99 1535.37 1551.99 1441.65C1551.99 1387.64 1530.67 1347.52 1256.2 1320.64C1026.77 1297.92 884.918 1247.1 884.918 1063.75C884.918 894.607 1027.5 793.697 1266.5 793.697C1535.08 793.697 1668.02 886.927 1684.85 1086.95C1685.11 1090.29 1684.68 1093.65 1683.59 1096.81C1682.5 1099.98 1680.77 1102.89 1678.51 1105.36C1676.25 1107.84 1673.51 1109.82 1670.45 1111.19C1667.4 1112.57 1664.1 1113.3 1660.75 1113.34H1551.58C1546.11 1113.27 1540.81 1111.36 1536.55 1107.92C1532.28 1104.49 1529.29 1099.72 1528.05 1094.39C1501.99 978.278 1438.17 941.182 1266.58 941.182C1073.75 941.182 1051.36 1008.35 1051.36 1058.68C1051.36 1119.63 1077.83 1137.45 1338.16 1171.85C1595.79 1205.92 1718.19 1254.13 1718.19 1435.2C1718.19 1617.9 1565.88 1722.48 1300.25 1722.48C932.963 1722.97 856.075 1554.57 856.075 1413.3Z" fill="#FF6B6B"/>
</g>
<defs>
<clipPath id="clip0_1_36">
<rect width="2029" height="2500" fill="white" transform="translate(0.5)"/>
</clipPath>
</defs>
</svg>
