<svg width="2501" height="2438" viewBox="0 0 2501 2438" fill="none" xmlns="http://www.w3.org/2000/svg">
<g clip-path="url(#clip0_1_58)">
<path d="M443.208 0.25H2057.79C2302.58 0.25 2500.5 198.167 2500.5 442.958V1995.04C2500.5 2239.83 2302.58 2437.75 2057.79 2437.75H443.208C198.417 2437.75 0.5 2239.83 0.5 1995.04V442.958C0.5 198.167 198.417 0.25 443.208 0.25Z" fill="#FF6B6B"/>
<path d="M563 1709.62V637.75C563 630.458 566.125 626.292 573.417 626.292C591.125 626.292 607.792 626.292 631.75 625.25C656.75 624.208 682.792 624.208 710.917 623.167C739.042 622.125 769.25 622.125 801.542 621.083C833.833 620.042 865.083 620.042 896.333 620.042C981.75 620.042 1052.58 630.458 1110.92 652.333C1163 670.042 1210.92 699.208 1250.5 737.75C1283.83 771.083 1309.88 811.708 1326.54 856.5C1342.17 900.25 1350.5 945.042 1350.5 991.917C1350.5 1081.5 1329.67 1155.46 1288 1213.79C1246.33 1272.12 1188 1315.87 1120.29 1340.87C1049.46 1366.92 971.333 1376.29 885.917 1376.29C860.917 1376.29 844.25 1376.29 833.833 1375.25C823.417 1374.21 808.833 1374.21 789.042 1374.21V1708.58C790.083 1715.88 784.875 1722.12 777.583 1723.17H575.5C567.167 1723.17 563 1719 563 1709.62ZM790.083 827.333V1177.33C804.667 1178.38 818.208 1179.42 830.708 1179.42H885.917C926.542 1179.42 967.167 1173.17 1005.71 1160.67C1039.04 1151.29 1068.21 1131.5 1091.12 1105.46C1113 1079.42 1123.42 1044 1123.42 998.167C1124.46 965.875 1116.12 933.583 1099.46 905.458C1081.75 878.375 1056.75 857.542 1026.54 846.083C988 830.458 946.333 824.208 903.625 825.25C876.542 825.25 852.583 825.25 832.792 826.292C811.958 825.25 797.375 826.292 790.083 827.333ZM2000.5 1113.79C1969.25 1097.12 1935.92 1085.67 1900.5 1078.37C1861.96 1070.04 1823.42 1064.83 1783.83 1064.83C1763 1063.79 1741.12 1066.92 1721.33 1072.12C1707.79 1075.25 1696.33 1082.54 1689.04 1092.96C1683.83 1101.29 1680.71 1111.71 1680.71 1121.08C1680.71 1130.46 1684.88 1139.83 1691.13 1148.17C1700.5 1159.62 1713 1169 1726.54 1176.29C1750.5 1188.79 1775.5 1200.25 1800.5 1210.67C1856.75 1229.42 1910.92 1255.46 1960.92 1286.71C1995.29 1308.58 2023.42 1337.75 2043.21 1373.17C2059.88 1406.5 2068.21 1442.96 2067.17 1480.46C2068.21 1529.42 2053.62 1578.37 2026.54 1619C1997.38 1660.67 1956.75 1692.96 1909.88 1711.71C1858.83 1733.58 1796.33 1745.04 1721.33 1745.04C1673.42 1745.04 1626.54 1740.88 1579.67 1731.5C1543.21 1725.25 1506.75 1713.79 1473.42 1698.17C1466.12 1694 1460.92 1686.71 1461.96 1678.38V1497.12C1461.96 1494 1463 1489.83 1466.12 1487.75C1469.25 1485.67 1472.38 1486.71 1475.5 1488.79C1516.13 1512.75 1558.83 1529.42 1604.67 1539.83C1644.25 1550.25 1685.92 1555.46 1727.58 1555.46C1767.17 1555.46 1795.29 1550.25 1814.04 1540.87C1830.71 1533.58 1842.17 1515.87 1842.17 1497.12C1842.17 1482.54 1833.83 1469 1817.17 1455.46C1800.5 1441.92 1766.13 1426.29 1715.08 1406.5C1661.96 1387.75 1613 1362.75 1567.17 1331.5C1534.87 1308.58 1507.79 1278.38 1488 1242.96C1471.33 1209.62 1463 1173.17 1464.04 1136.71C1464.04 1091.92 1476.54 1049.21 1499.46 1010.67C1525.5 969 1564.04 935.667 1608.83 914.833C1657.79 889.833 1719.25 878.375 1793.21 878.375C1835.92 878.375 1879.67 881.5 1922.38 887.75C1953.62 891.917 1983.83 900.25 2011.96 911.708C2016.13 912.75 2020.29 916.917 2022.38 921.083C2023.42 925.25 2024.46 929.417 2024.46 933.583V1103.38C2024.46 1107.54 2022.38 1111.71 2019.25 1113.79C2009.88 1115.88 2004.67 1115.88 2000.5 1113.79Z" fill="#1A1831"/>
</g>
<defs>
<clipPath id="clip0_1_58">
<rect width="2500" height="2438" fill="white" transform="translate(0.5)"/>
</clipPath>
</defs>
</svg>
