<svg width="2195" height="2500" viewBox="0 0 2195 2500" fill="none" xmlns="http://www.w3.org/2000/svg">
<g clip-path="url(#clip0_1_28)">
<path d="M2194.5 1250.22C2194.5 1104.88 2012.49 967.141 1733.43 881.725C1797.83 597.301 1769.21 371.014 1643.09 298.566C1614.02 281.572 1580.04 273.522 1542.92 273.522V373.25C1563.49 373.25 1580.04 377.275 1593.9 384.877C1654.72 419.759 1681.11 552.58 1660.53 723.413C1655.62 765.451 1647.57 809.724 1637.73 854.892C1550.07 833.426 1454.37 816.88 1353.75 806.147C1293.38 723.413 1230.77 648.282 1167.71 582.543C1313.5 447.039 1450.35 372.802 1543.37 372.802V273.075C1420.38 273.075 1259.39 360.728 1096.61 512.778C933.822 361.622 772.827 274.864 649.845 274.864V374.591C742.417 374.591 879.71 448.381 1025.5 582.99C962.891 648.729 900.282 723.413 840.803 806.147C739.734 816.88 644.032 833.426 556.379 855.339C546.093 810.619 538.491 767.239 533.124 725.649C512.105 554.816 538.043 421.995 598.417 386.666C611.833 378.616 629.274 375.039 649.845 375.039V275.311C612.28 275.311 578.292 283.361 548.776 300.355C423.111 372.802 394.937 598.642 459.782 882.172C181.619 968.036 0.5 1105.33 0.5 1250.22C0.5 1395.57 182.513 1533.31 461.571 1618.72C397.173 1903.15 425.794 2129.43 551.907 2201.88C580.975 2218.88 614.963 2226.92 652.529 2226.92C775.511 2226.92 936.505 2139.27 1099.29 1987.22C1262.07 2138.38 1423.07 2225.14 1546.05 2225.14C1583.61 2225.14 1617.6 2217.09 1647.12 2200.09C1772.78 2127.64 1800.96 1901.8 1736.11 1618.28C2013.38 1532.86 2194.5 1395.12 2194.5 1250.22ZM1612.24 951.936C1595.69 1009.63 1575.12 1069.1 1551.86 1128.58C1533.53 1092.81 1514.3 1057.03 1493.28 1021.25C1472.71 985.477 1450.79 950.595 1428.88 916.607C1492.38 925.998 1553.65 937.626 1612.24 951.936ZM1407.41 1428.21C1372.53 1488.59 1336.76 1545.83 1299.64 1599.05C1233 1604.86 1165.48 1607.99 1097.5 1607.99C1029.97 1607.99 962.443 1604.86 896.257 1599.49C859.138 1546.28 822.915 1489.48 788.032 1429.55C754.045 1370.97 723.187 1311.49 695.013 1251.57C722.74 1191.64 754.045 1131.71 787.585 1073.13C822.468 1012.76 858.244 955.514 895.362 902.296C961.996 896.482 1029.52 893.352 1097.5 893.352C1165.03 893.352 1232.56 896.482 1298.74 901.849C1335.86 955.067 1372.09 1011.86 1406.97 1071.79C1440.96 1130.37 1471.81 1189.85 1499.99 1249.78C1471.81 1309.7 1440.96 1369.63 1407.41 1428.21ZM1551.86 1370.08C1576.01 1430 1596.58 1489.93 1613.58 1548.06C1554.99 1562.37 1493.28 1574.45 1429.33 1583.84C1451.24 1549.41 1473.15 1514.08 1493.73 1477.85C1514.3 1442.08 1533.53 1405.85 1551.86 1370.08ZM1098.39 1847.25C1056.8 1804.31 1015.21 1756.46 974.071 1704.14C1014.32 1705.93 1055.46 1707.27 1097.05 1707.27C1139.09 1707.27 1180.68 1706.38 1221.38 1704.14C1181.13 1756.46 1139.54 1804.31 1098.39 1847.25ZM765.672 1583.84C702.169 1574.45 640.901 1562.82 582.317 1548.51C598.864 1490.82 619.435 1431.34 642.69 1371.86C661.026 1407.64 680.255 1443.42 701.274 1479.19C722.293 1514.97 743.759 1549.85 765.672 1583.84ZM1096.16 653.202C1137.75 696.133 1179.34 743.985 1220.48 796.308C1180.23 794.519 1139.09 793.178 1097.5 793.178C1055.46 793.178 1013.87 794.072 973.176 796.308C1013.43 743.985 1055.02 696.133 1096.16 653.202ZM765.225 916.607C743.312 951.042 721.398 986.371 700.827 1022.59C680.255 1058.37 661.026 1094.15 642.69 1129.92C618.541 1070 597.969 1010.07 580.975 951.936C639.56 938.073 701.274 925.998 765.225 916.607ZM360.502 1476.51C202.191 1408.98 99.7801 1320.44 99.7801 1250.22C99.7801 1180.01 202.191 1091.02 360.502 1023.94C398.962 1007.39 440.999 992.632 484.379 978.769C509.869 1066.42 543.41 1157.65 585 1251.12C543.857 1344.14 510.764 1434.92 485.72 1522.13C441.447 1508.26 399.409 1493.06 360.502 1476.51ZM601.1 2115.57C540.28 2080.69 513.894 1947.87 534.466 1777.03C539.385 1735 547.435 1690.72 557.273 1645.55C644.926 1667.02 740.629 1683.57 841.25 1694.3C901.623 1777.03 964.232 1852.16 1027.29 1917.9C881.499 2053.41 744.653 2127.64 651.634 2127.64C631.51 2127.2 614.516 2123.17 601.1 2115.57ZM1661.88 1774.8C1682.89 1945.63 1656.96 2078.45 1596.58 2113.78C1583.17 2121.83 1565.73 2125.41 1545.15 2125.41C1452.58 2125.41 1315.29 2051.62 1169.5 1917.01C1232.11 1851.27 1294.72 1776.59 1354.2 1693.85C1455.27 1683.12 1550.97 1666.57 1638.62 1644.66C1648.91 1689.83 1656.96 1733.21 1661.88 1774.8ZM1834.05 1476.51C1795.59 1493.06 1753.55 1507.82 1710.17 1521.68C1684.68 1434.03 1651.14 1342.8 1609.55 1249.33C1650.7 1156.31 1683.79 1065.53 1708.83 978.321C1753.11 992.185 1795.14 1007.39 1834.5 1023.94C1992.81 1091.46 2095.22 1180.01 2095.22 1250.22C2094.77 1320.44 1992.36 1409.43 1834.05 1476.51Z" fill="#FF6B6B"/>
<path d="M1097.05 1454.6C1209.93 1454.6 1301.43 1363.1 1301.43 1250.22C1301.43 1137.35 1209.93 1045.85 1097.05 1045.85C984.18 1045.85 892.679 1137.35 892.679 1250.22C892.679 1363.1 984.18 1454.6 1097.05 1454.6Z" fill="#FF6B6B"/>
</g>
<defs>
<clipPath id="clip0_1_28">
<rect width="2194" height="2500" fill="white" transform="translate(0.5)"/>
</clipPath>
</defs>
</svg>
