<svg width="3028" height="3028" viewBox="0 0 3028 3028" fill="none" xmlns="http://www.w3.org/2000/svg">
<path d="M2304.19 0.883225C1910.42 -17.6633 1579.48 266.968 1522.96 642.062C1520.69 659.473 1517.28 676.379 1514.51 693.159C1426.69 1160.35 1017.91 1514.12 526.999 1514.12C351.879 1514.12 187.484 1469.21 44.4105 1390.61C40.5087 1388.4 36.0949 1387.26 31.6128 1387.3C27.1308 1387.34 22.7383 1388.56 18.8769 1390.84C15.0154 1393.11 11.8211 1396.37 9.61481 1400.27C7.40856 1404.17 6.26813 1408.58 6.30815 1413.07V3028H1514V1892.62C1514 1683.69 1682.81 1514.12 1890.86 1514.12H2267.85C2694.55 1514.12 3037.85 1158.71 3021.07 726.341C3005.93 337.243 2691.77 19.4297 2304.19 0.883225Z" fill="#FF6B6B"/>
</svg>
