<svg width="2501" height="1499" viewBox="0 0 2501 1499" fill="none" xmlns="http://www.w3.org/2000/svg">
<g clip-path="url(#clip0_1_34)">
<path d="M1250.5 0C917.288 0 709.043 166.559 625.732 499.646C750.698 333.087 896.476 270.651 1063.07 312.275C1158.13 336.024 1226.06 404.992 1301.28 481.302C1423.78 605.612 1565.56 749.484 1875.27 749.484C2208.45 749.484 2416.73 582.925 2500.01 249.807C2375.07 416.366 2229.29 478.834 2062.67 437.21C1967.64 413.46 1899.71 344.493 1824.49 268.182C1701.99 143.872 1560.18 0 1250.5 0ZM625.732 749.484C292.551 749.484 84.2743 916.043 0.994781 1249.16C125.93 1082.6 271.708 1020.14 438.329 1061.79C533.359 1085.57 601.295 1154.51 676.512 1230.79C799.009 1355.1 940.819 1499 1250.5 1499C1583.71 1499 1791.96 1332.44 1875.27 999.323C1750.3 1165.88 1604.52 1228.35 1437.93 1186.69C1342.87 1162.98 1274.94 1093.98 1199.72 1017.7C1077.22 893.388 935.444 749.484 625.732 749.484Z" fill="#FF6B6B"/>
</g>
<defs>
<clipPath id="clip0_1_34">
<rect width="2500" height="1499" fill="white" transform="translate(0.5)"/>
</clipPath>
</defs>
</svg>
