<svg width="2501" height="2455" viewBox="0 0 2501 2455" fill="none" xmlns="http://www.w3.org/2000/svg">
<path d="M71.9472 877.596C71.9472 877.596 12.7668 834.937 83.7832 777.976L249.242 630.025C249.242 630.025 296.586 580.214 346.643 623.613L1873.5 1779.6V2333.93C1873.5 2333.93 1872.76 2420.97 1761.05 2411.35L71.9472 877.596Z" fill="#DECE9C"/>
<path d="M465.497 1234.9L71.9472 1592.69C71.9472 1592.69 31.5072 1622.78 71.9472 1676.53L254.667 1842.73C254.667 1842.73 298.066 1889.33 362.178 1836.32L779.399 1519.95L465.497 1234.9Z" fill="#FF6B6B"/>
<path d="M1156.43 1237.86L1878.18 686.739L1873.5 135.375C1873.5 135.375 1842.67 15.0417 1739.85 77.6743L779.399 951.818L1156.43 1237.86Z" fill="#DECE9C"/>
<path d="M1761.05 2412.09C1802.97 2455 1853.77 2440.94 1853.77 2440.94L2416.23 2163.78C2488.23 2114.71 2478.12 2053.81 2478.12 2053.81V398.728C2478.12 325.985 2403.65 300.834 2403.65 300.834L1916.16 65.8382C1809.63 2.28882e-05 1739.85 77.6743 1739.85 77.6743C1739.85 77.6743 1829.6 13.069 1873.5 135.375V2323.82C1873.5 2338.86 1870.29 2353.65 1863.88 2366.97C1851.06 2392.86 1823.19 2417.03 1756.37 2406.92L1761.05 2412.09Z" fill="#FF6B6B"/>
</svg>
